# xmcd
#
# Track frame offsets:
#	150
#	11894
#	23452
#	34765
#	44160
#	61633
#	74727
#	87362
#	97733
#	107381
#	118531
#	133617
#	148703
#	163086
#	182361
#	194836
#	210859
#	221580
#	236378
#	248445
#	260657
#	277893
#	288418
#	306384
#	319580
#	331159
#	349166
#
# Disc length: 4795 seconds
#
# Revision: 3
# Processed by: cddbd v1.4PL0 Copyright (c) Steve Scherf et al.
# Submitted via: audiograbber 1.80
#
DISCID=8312b91b
DTITLE=Alexander Peter - Eigene Liederzusammenstellung
DYEAR=1900
DGENRE=
TTITLE0=Missouri Cowboy, du mußt dein Pferd verkaufen (Duett mit Bill Ramsey)
TTITLE1=Eventuell (Duett mit Caterina Valente)
TTITLE2=Verliebt, verlobt, verheiratet (Duett mit Conny Frobess)
TTITLE3=Blondy (Duett mit Conny Frobess)
TTITLE4=Goodbye my Love, verzeih my Love (Duett mit Mireille Mathieu)
TTITLE5=Unser Vater war a Hausherr (Duett mit Paul Hörbiger)
TTITLE6=Wozu ist die Straße da (Duett mit Paul Hörbiger
TTITLE7=Eine Lederhose braucht keine Bügelfalten (Duett mit Sven Jennsen)
TTITLE8=Babysitter-Boogie
TTITLE9=Das ganze Haus ist schief
TTITLE10=Delilah
TTITLE11=Der letzte Walzer
TTITLE12=Der Papa wird's schon richten
TTITLE13=Die kleine Kneipe in unserer Straße
TTITLE14=Die süßesten Früchtchen
TTITLE15=Feierabend
TTITLE16=Herz Schmerz Polka
TTITLE17=Hier ist ein Mensch
TTITLE18=Komm und bedien dich
TTITLE19=Liebeslied
TTITLE20=Pedro (Mandolinen um Mitternacht)
TTITLE21=Sag' beim Abschied leise Servus
TTITLE22=Schwarzes Gold
TTITLE23=So richtig nett ist es nur im Bett
TTITLE24=Spanisch war die Nacht
TTITLE25=Und manchmal weinst du ein paar Tränen
TTITLE26=Wenn erst der Abend zu Ende geht
EXTD=
EXTT0=
EXTT1=
EXTT2=
EXTT3=
EXTT4=
EXTT5=
EXTT6=
EXTT7=
EXTT8=
EXTT9=
EXTT10=
EXTT11=
EXTT12=
EXTT13=
EXTT14=
EXTT15=
EXTT16=
EXTT17=
EXTT18=
EXTT19=
EXTT20=
EXTT21=
EXTT22=
EXTT23=
EXTT24=
EXTT25=
EXTT26=
PLAYORDER=
